<mxfile host="app.diagrams.net" agent="Mozilla/5.0 (Windows NT 10.0; Win64; x64) AppleWebKit/537.36 (KHTML, like Gecko) Chrome/131.0.0.0 Safari/537.36" version="25.0.3">
  <diagram name="Page-1" id="gjiGYrU1GdK40-PwsjZL">
    <mxGraphModel dx="1955" dy="1658" grid="1" gridSize="10" guides="1" tooltips="1" connect="1" arrows="1" fold="1" page="1" pageScale="1" pageWidth="850" pageHeight="1100" math="0" shadow="0">
      <root>
        <mxCell id="0" />
        <mxCell id="1" parent="0" />
        <mxCell id="1EiyAuGydXLx-KwnoGxu-1" value="Gateway microservice" style="swimlane;whiteSpace=wrap;html=1;" parent="1" vertex="1">
          <mxGeometry x="-20" y="-40" width="230" height="1420" as="geometry" />
        </mxCell>
        <mxCell id="1EiyAuGydXLx-KwnoGxu-8" value="User module" style="swimlane;whiteSpace=wrap;html=1;" parent="1EiyAuGydXLx-KwnoGxu-1" vertex="1">
          <mxGeometry x="15" y="40" width="200" height="200" as="geometry" />
        </mxCell>
        <mxCell id="1EiyAuGydXLx-KwnoGxu-5" value="Register" style="rounded=0;whiteSpace=wrap;html=1;" parent="1EiyAuGydXLx-KwnoGxu-8" vertex="1">
          <mxGeometry x="40" y="40" width="120" height="60" as="geometry" />
        </mxCell>
        <mxCell id="1EiyAuGydXLx-KwnoGxu-7" value="Login" style="rounded=0;whiteSpace=wrap;html=1;" parent="1EiyAuGydXLx-KwnoGxu-8" vertex="1">
          <mxGeometry x="40" y="120" width="120" height="60" as="geometry" />
        </mxCell>
        <mxCell id="1EiyAuGydXLx-KwnoGxu-24" value="Account module" style="swimlane;whiteSpace=wrap;html=1;" parent="1EiyAuGydXLx-KwnoGxu-1" vertex="1">
          <mxGeometry x="10" y="660" width="200" height="390" as="geometry" />
        </mxCell>
        <mxCell id="1EiyAuGydXLx-KwnoGxu-32" value="Create" style="rounded=0;whiteSpace=wrap;html=1;" parent="1EiyAuGydXLx-KwnoGxu-24" vertex="1">
          <mxGeometry x="40" y="220" width="120" height="60" as="geometry" />
        </mxCell>
        <mxCell id="1EiyAuGydXLx-KwnoGxu-70" value="Withdraw" style="rounded=0;whiteSpace=wrap;html=1;" parent="1EiyAuGydXLx-KwnoGxu-24" vertex="1">
          <mxGeometry x="40" y="140" width="120" height="60" as="geometry" />
        </mxCell>
        <mxCell id="1EiyAuGydXLx-KwnoGxu-69" value="Deposit" style="rounded=0;whiteSpace=wrap;html=1;" parent="1EiyAuGydXLx-KwnoGxu-24" vertex="1">
          <mxGeometry x="40" y="60" width="120" height="60" as="geometry" />
        </mxCell>
        <mxCell id="QUk8FtStDp65RCyqHyz4-1" value="GetBalance" style="rounded=0;whiteSpace=wrap;html=1;" parent="1EiyAuGydXLx-KwnoGxu-24" vertex="1">
          <mxGeometry x="40" y="300" width="120" height="60" as="geometry" />
        </mxCell>
        <mxCell id="1EiyAuGydXLx-KwnoGxu-51" value="Report module" style="swimlane;whiteSpace=wrap;html=1;" parent="1EiyAuGydXLx-KwnoGxu-1" vertex="1">
          <mxGeometry x="15" y="1150" width="200" height="220" as="geometry" />
        </mxCell>
        <mxCell id="1EiyAuGydXLx-KwnoGxu-52" value="Turnover" style="rounded=0;whiteSpace=wrap;html=1;" parent="1EiyAuGydXLx-KwnoGxu-51" vertex="1">
          <mxGeometry x="40" y="40" width="120" height="60" as="geometry" />
        </mxCell>
        <mxCell id="1EiyAuGydXLx-KwnoGxu-53" value="TransactionDetail" style="rounded=0;whiteSpace=wrap;html=1;" parent="1EiyAuGydXLx-KwnoGxu-51" vertex="1">
          <mxGeometry x="40" y="130" width="120" height="60" as="geometry" />
        </mxCell>
        <mxCell id="1EiyAuGydXLx-KwnoGxu-67" value="Transaction module" style="swimlane;whiteSpace=wrap;html=1;" parent="1EiyAuGydXLx-KwnoGxu-1" vertex="1">
          <mxGeometry x="10" y="260" width="200" height="120" as="geometry" />
        </mxCell>
        <mxCell id="1EiyAuGydXLx-KwnoGxu-68" value="Transfer" style="rounded=0;whiteSpace=wrap;html=1;" parent="1EiyAuGydXLx-KwnoGxu-67" vertex="1">
          <mxGeometry x="40" y="40" width="120" height="60" as="geometry" />
        </mxCell>
        <mxCell id="1EiyAuGydXLx-KwnoGxu-2" value="Account microservice" style="swimlane;whiteSpace=wrap;html=1;" parent="1" vertex="1">
          <mxGeometry x="425" y="550" width="270" height="590" as="geometry" />
        </mxCell>
        <mxCell id="QUk8FtStDp65RCyqHyz4-16" value="Account module" style="swimlane;whiteSpace=wrap;html=1;" parent="1EiyAuGydXLx-KwnoGxu-2" vertex="1">
          <mxGeometry x="35" y="30" width="200" height="400" as="geometry" />
        </mxCell>
        <mxCell id="1EiyAuGydXLx-KwnoGxu-94" value="account.transfer" style="rounded=0;whiteSpace=wrap;html=1;" parent="QUk8FtStDp65RCyqHyz4-16" vertex="1">
          <mxGeometry x="40" y="36" width="120" height="60" as="geometry" />
        </mxCell>
        <mxCell id="1EiyAuGydXLx-KwnoGxu-93" value="account.deposit" style="rounded=0;whiteSpace=wrap;html=1;" parent="QUk8FtStDp65RCyqHyz4-16" vertex="1">
          <mxGeometry x="40" y="106" width="120" height="60" as="geometry" />
        </mxCell>
        <mxCell id="1EiyAuGydXLx-KwnoGxu-92" value="account.withdraw" style="rounded=0;whiteSpace=wrap;html=1;" parent="QUk8FtStDp65RCyqHyz4-16" vertex="1">
          <mxGeometry x="40" y="186" width="120" height="60" as="geometry" />
        </mxCell>
        <mxCell id="1EiyAuGydXLx-KwnoGxu-62" value="account.create" style="rounded=0;whiteSpace=wrap;html=1;" parent="QUk8FtStDp65RCyqHyz4-16" vertex="1">
          <mxGeometry x="40" y="266" width="120" height="60" as="geometry" />
        </mxCell>
        <mxCell id="QUk8FtStDp65RCyqHyz4-3" value="account.getBalance" style="rounded=0;whiteSpace=wrap;html=1;" parent="QUk8FtStDp65RCyqHyz4-16" vertex="1">
          <mxGeometry x="40" y="336" width="120" height="60" as="geometry" />
        </mxCell>
        <mxCell id="1EiyAuGydXLx-KwnoGxu-3" value="Report microservice" style="swimlane;whiteSpace=wrap;html=1;" parent="1" vertex="1">
          <mxGeometry x="425" y="1154" width="265" height="676" as="geometry" />
        </mxCell>
        <mxCell id="1EiyAuGydXLx-KwnoGxu-56" value="report.turnover" style="rounded=0;whiteSpace=wrap;html=1;" parent="1EiyAuGydXLx-KwnoGxu-3" vertex="1">
          <mxGeometry x="72.5" y="466" width="120" height="60" as="geometry" />
        </mxCell>
        <mxCell id="QUk8FtStDp65RCyqHyz4-22" value="Log module" style="swimlane;whiteSpace=wrap;html=1;" parent="1EiyAuGydXLx-KwnoGxu-3" vertex="1">
          <mxGeometry x="30" y="40" width="200" height="380" as="geometry" />
        </mxCell>
        <mxCell id="1EiyAuGydXLx-KwnoGxu-38" value="log.transferFinished" style="rounded=0;whiteSpace=wrap;html=1;" parent="QUk8FtStDp65RCyqHyz4-22" vertex="1">
          <mxGeometry x="40" y="97" width="120" height="60" as="geometry" />
        </mxCell>
        <mxCell id="1EiyAuGydXLx-KwnoGxu-42" value="log.deposit" style="rounded=0;whiteSpace=wrap;html=1;" parent="QUk8FtStDp65RCyqHyz4-22" vertex="1">
          <mxGeometry x="40" y="169" width="120" height="60" as="geometry" />
        </mxCell>
        <mxCell id="1EiyAuGydXLx-KwnoGxu-43" value="log.withdraw" style="rounded=0;whiteSpace=wrap;html=1;" parent="QUk8FtStDp65RCyqHyz4-22" vertex="1">
          <mxGeometry x="40" y="239" width="120" height="60" as="geometry" />
        </mxCell>
        <mxCell id="1EiyAuGydXLx-KwnoGxu-44" value="log.gift" style="rounded=0;whiteSpace=wrap;html=1;" parent="QUk8FtStDp65RCyqHyz4-22" vertex="1">
          <mxGeometry x="40" y="309" width="120" height="60" as="geometry" />
        </mxCell>
        <mxCell id="z_p3hWrLcOgbsuCtcpRh-2" value="log.transferStarted" style="rounded=0;whiteSpace=wrap;html=1;" vertex="1" parent="QUk8FtStDp65RCyqHyz4-22">
          <mxGeometry x="40" y="26" width="120" height="60" as="geometry" />
        </mxCell>
        <mxCell id="QUk8FtStDp65RCyqHyz4-27" value="Report module" style="swimlane;whiteSpace=wrap;html=1;" parent="1EiyAuGydXLx-KwnoGxu-3" vertex="1">
          <mxGeometry x="30" y="431" width="200" height="199" as="geometry" />
        </mxCell>
        <mxCell id="1EiyAuGydXLx-KwnoGxu-58" value="report.transactionDetail" style="rounded=0;whiteSpace=wrap;html=1;" parent="QUk8FtStDp65RCyqHyz4-27" vertex="1">
          <mxGeometry x="22.5" y="125" width="160" height="60" as="geometry" />
        </mxCell>
        <mxCell id="1EiyAuGydXLx-KwnoGxu-14" style="edgeStyle=orthogonalEdgeStyle;rounded=0;orthogonalLoop=1;jettySize=auto;html=1;entryX=0;entryY=0.5;entryDx=0;entryDy=0;startArrow=classic;startFill=1;" parent="1" source="1EiyAuGydXLx-KwnoGxu-4" target="1EiyAuGydXLx-KwnoGxu-10" edge="1">
          <mxGeometry relative="1" as="geometry">
            <Array as="points">
              <mxPoint x="410" y="70" />
              <mxPoint x="410" y="20" />
            </Array>
          </mxGeometry>
        </mxCell>
        <mxCell id="1EiyAuGydXLx-KwnoGxu-16" style="edgeStyle=orthogonalEdgeStyle;rounded=0;orthogonalLoop=1;jettySize=auto;html=1;entryX=1;entryY=0.5;entryDx=0;entryDy=0;startArrow=classic;startFill=1;" parent="1" source="1EiyAuGydXLx-KwnoGxu-4" target="1EiyAuGydXLx-KwnoGxu-5" edge="1">
          <mxGeometry relative="1" as="geometry" />
        </mxCell>
        <mxCell id="1EiyAuGydXLx-KwnoGxu-4" value="RabbitMQ&lt;br&gt;User_queue" style="outlineConnect=0;dashed=0;verticalLabelPosition=bottom;verticalAlign=top;align=center;html=1;shape=mxgraph.aws3.queue;fillColor=#D9A741;gradientColor=none;" parent="1" vertex="1">
          <mxGeometry x="270" y="46" width="73.5" height="48" as="geometry" />
        </mxCell>
        <mxCell id="1EiyAuGydXLx-KwnoGxu-6" value="User microservice" style="swimlane;whiteSpace=wrap;html=1;" parent="1" vertex="1">
          <mxGeometry x="420" y="-90" width="270" height="280" as="geometry" />
        </mxCell>
        <mxCell id="1EiyAuGydXLx-KwnoGxu-9" value="User module" style="swimlane;whiteSpace=wrap;html=1;" parent="1EiyAuGydXLx-KwnoGxu-6" vertex="1">
          <mxGeometry x="35" y="40" width="200" height="200" as="geometry" />
        </mxCell>
        <mxCell id="1EiyAuGydXLx-KwnoGxu-10" value="user.register" style="rounded=0;whiteSpace=wrap;html=1;" parent="1EiyAuGydXLx-KwnoGxu-9" vertex="1">
          <mxGeometry x="40" y="40" width="120" height="60" as="geometry" />
        </mxCell>
        <mxCell id="1EiyAuGydXLx-KwnoGxu-11" value="user.login" style="rounded=0;whiteSpace=wrap;html=1;" parent="1EiyAuGydXLx-KwnoGxu-9" vertex="1">
          <mxGeometry x="40" y="120" width="120" height="60" as="geometry" />
        </mxCell>
        <mxCell id="1EiyAuGydXLx-KwnoGxu-17" style="edgeStyle=orthogonalEdgeStyle;rounded=0;orthogonalLoop=1;jettySize=auto;html=1;entryX=1;entryY=1;entryDx=0;entryDy=0;entryPerimeter=0;startArrow=classic;startFill=1;" parent="1" source="1EiyAuGydXLx-KwnoGxu-11" target="1EiyAuGydXLx-KwnoGxu-4" edge="1">
          <mxGeometry relative="1" as="geometry">
            <Array as="points">
              <mxPoint x="410" y="100" />
              <mxPoint x="410" y="94" />
            </Array>
          </mxGeometry>
        </mxCell>
        <mxCell id="1EiyAuGydXLx-KwnoGxu-20" style="edgeStyle=orthogonalEdgeStyle;rounded=0;orthogonalLoop=1;jettySize=auto;html=1;entryX=0;entryY=1;entryDx=0;entryDy=0;entryPerimeter=0;startArrow=classic;startFill=1;" parent="1" source="1EiyAuGydXLx-KwnoGxu-7" target="1EiyAuGydXLx-KwnoGxu-4" edge="1">
          <mxGeometry relative="1" as="geometry">
            <Array as="points">
              <mxPoint x="220" y="150" />
              <mxPoint x="220" y="94" />
            </Array>
          </mxGeometry>
        </mxCell>
        <mxCell id="1EiyAuGydXLx-KwnoGxu-21" value="MongoDB" style="sketch=0;points=[[0,0,0],[0.25,0,0],[0.5,0,0],[0.75,0,0],[1,0,0],[0,1,0],[0.25,1,0],[0.5,1,0],[0.75,1,0],[1,1,0],[0,0.25,0],[0,0.5,0],[0,0.75,0],[1,0.25,0],[1,0.5,0],[1,0.75,0]];outlineConnect=0;fontColor=#232F3E;fillColor=#C925D1;strokeColor=#ffffff;dashed=0;verticalLabelPosition=bottom;verticalAlign=top;align=center;html=1;fontSize=12;fontStyle=0;aspect=fixed;shape=mxgraph.aws4.resourceIcon;resIcon=mxgraph.aws4.documentdb_with_mongodb_compatibility;" parent="1" vertex="1">
          <mxGeometry x="735" y="37" width="78" height="78" as="geometry" />
        </mxCell>
        <mxCell id="1EiyAuGydXLx-KwnoGxu-22" style="edgeStyle=orthogonalEdgeStyle;rounded=0;orthogonalLoop=1;jettySize=auto;html=1;entryX=0;entryY=0.25;entryDx=0;entryDy=0;entryPerimeter=0;startArrow=classic;startFill=1;" parent="1" source="1EiyAuGydXLx-KwnoGxu-10" target="1EiyAuGydXLx-KwnoGxu-21" edge="1">
          <mxGeometry relative="1" as="geometry" />
        </mxCell>
        <mxCell id="1EiyAuGydXLx-KwnoGxu-23" style="edgeStyle=orthogonalEdgeStyle;rounded=0;orthogonalLoop=1;jettySize=auto;html=1;entryX=0;entryY=0.5;entryDx=0;entryDy=0;entryPerimeter=0;startArrow=classic;startFill=1;" parent="1" source="1EiyAuGydXLx-KwnoGxu-11" target="1EiyAuGydXLx-KwnoGxu-21" edge="1">
          <mxGeometry relative="1" as="geometry" />
        </mxCell>
        <mxCell id="1EiyAuGydXLx-KwnoGxu-27" value="" style="sketch=0;outlineConnect=0;fontColor=#232F3E;gradientColor=none;fillColor=#C925D1;strokeColor=none;dashed=0;verticalLabelPosition=bottom;verticalAlign=top;align=center;html=1;fontSize=12;fontStyle=0;aspect=fixed;pointerEvents=1;shape=mxgraph.aws4.rds_postgresql_instance;" parent="1" vertex="1">
          <mxGeometry x="735" y="752" width="88" height="88" as="geometry" />
        </mxCell>
        <mxCell id="1EiyAuGydXLx-KwnoGxu-63" style="edgeStyle=orthogonalEdgeStyle;rounded=0;orthogonalLoop=1;jettySize=auto;html=1;entryX=0;entryY=0.5;entryDx=0;entryDy=0;startArrow=classic;startFill=1;" parent="1" source="1EiyAuGydXLx-KwnoGxu-28" target="1EiyAuGydXLx-KwnoGxu-62" edge="1">
          <mxGeometry relative="1" as="geometry" />
        </mxCell>
        <mxCell id="1EiyAuGydXLx-KwnoGxu-95" style="edgeStyle=orthogonalEdgeStyle;rounded=0;orthogonalLoop=1;jettySize=auto;html=1;entryX=0;entryY=0.5;entryDx=0;entryDy=0;startArrow=classic;startFill=1;" parent="1" source="1EiyAuGydXLx-KwnoGxu-28" target="1EiyAuGydXLx-KwnoGxu-92" edge="1">
          <mxGeometry relative="1" as="geometry" />
        </mxCell>
        <mxCell id="1EiyAuGydXLx-KwnoGxu-96" style="edgeStyle=orthogonalEdgeStyle;rounded=0;orthogonalLoop=1;jettySize=auto;html=1;entryX=0;entryY=0.5;entryDx=0;entryDy=0;startArrow=classic;startFill=1;" parent="1" source="1EiyAuGydXLx-KwnoGxu-28" target="1EiyAuGydXLx-KwnoGxu-93" edge="1">
          <mxGeometry relative="1" as="geometry" />
        </mxCell>
        <mxCell id="1EiyAuGydXLx-KwnoGxu-97" style="edgeStyle=orthogonalEdgeStyle;rounded=0;orthogonalLoop=1;jettySize=auto;html=1;entryX=0;entryY=0.5;entryDx=0;entryDy=0;startArrow=none;startFill=0;" parent="1" source="1EiyAuGydXLx-KwnoGxu-28" target="1EiyAuGydXLx-KwnoGxu-94" edge="1">
          <mxGeometry relative="1" as="geometry" />
        </mxCell>
        <mxCell id="QUk8FtStDp65RCyqHyz4-5" value="&lt;div&gt;&lt;br&gt;&lt;/div&gt;" style="edgeStyle=orthogonalEdgeStyle;rounded=0;orthogonalLoop=1;jettySize=auto;html=1;entryX=0;entryY=0.5;entryDx=0;entryDy=0;startArrow=classic;startFill=1;" parent="1" source="1EiyAuGydXLx-KwnoGxu-28" target="QUk8FtStDp65RCyqHyz4-3" edge="1">
          <mxGeometry relative="1" as="geometry" />
        </mxCell>
        <mxCell id="1EiyAuGydXLx-KwnoGxu-28" value="RabbitMQ&lt;br&gt;account_queue" style="outlineConnect=0;dashed=0;verticalLabelPosition=bottom;verticalAlign=top;align=center;html=1;shape=mxgraph.aws3.queue;fillColor=#D9A741;gradientColor=none;" parent="1" vertex="1">
          <mxGeometry x="300" y="766" width="73.5" height="48" as="geometry" />
        </mxCell>
        <mxCell id="1EiyAuGydXLx-KwnoGxu-33" style="edgeStyle=orthogonalEdgeStyle;rounded=0;orthogonalLoop=1;jettySize=auto;html=1;entryX=0;entryY=0.5;entryDx=0;entryDy=0;entryPerimeter=0;startArrow=classic;startFill=1;" parent="1" source="1EiyAuGydXLx-KwnoGxu-32" target="1EiyAuGydXLx-KwnoGxu-28" edge="1">
          <mxGeometry relative="1" as="geometry" />
        </mxCell>
        <mxCell id="1EiyAuGydXLx-KwnoGxu-35" style="edgeStyle=orthogonalEdgeStyle;rounded=0;orthogonalLoop=1;jettySize=auto;html=1;startArrow=classic;startFill=1;exitX=1;exitY=0.5;exitDx=0;exitDy=0;" parent="1" source="1EiyAuGydXLx-KwnoGxu-25" target="1EiyAuGydXLx-KwnoGxu-27" edge="1">
          <mxGeometry relative="1" as="geometry">
            <Array as="points">
              <mxPoint x="710" y="1070" />
              <mxPoint x="710" y="796" />
            </Array>
            <mxPoint x="735" y="866" as="targetPoint" />
          </mxGeometry>
        </mxCell>
        <mxCell id="1EiyAuGydXLx-KwnoGxu-57" style="edgeStyle=orthogonalEdgeStyle;rounded=0;orthogonalLoop=1;jettySize=auto;html=1;entryX=0;entryY=0.5;entryDx=0;entryDy=0;exitX=1;exitY=0.5;exitDx=0;exitDy=0;exitPerimeter=0;" parent="1" source="1EiyAuGydXLx-KwnoGxu-36" target="1EiyAuGydXLx-KwnoGxu-56" edge="1">
          <mxGeometry relative="1" as="geometry">
            <Array as="points">
              <mxPoint x="420" y="1374" />
              <mxPoint x="420" y="1650" />
            </Array>
          </mxGeometry>
        </mxCell>
        <mxCell id="1EiyAuGydXLx-KwnoGxu-59" style="edgeStyle=orthogonalEdgeStyle;rounded=0;orthogonalLoop=1;jettySize=auto;html=1;exitX=1;exitY=0.5;exitDx=0;exitDy=0;exitPerimeter=0;entryX=0;entryY=0.5;entryDx=0;entryDy=0;" parent="1" source="1EiyAuGydXLx-KwnoGxu-36" target="1EiyAuGydXLx-KwnoGxu-58" edge="1">
          <mxGeometry relative="1" as="geometry">
            <mxPoint x="495" y="1692" as="targetPoint" />
            <Array as="points">
              <mxPoint x="420" y="1374" />
              <mxPoint x="420" y="1740" />
            </Array>
          </mxGeometry>
        </mxCell>
        <mxCell id="z_p3hWrLcOgbsuCtcpRh-3" style="edgeStyle=orthogonalEdgeStyle;rounded=0;orthogonalLoop=1;jettySize=auto;html=1;entryX=0;entryY=0.5;entryDx=0;entryDy=0;" edge="1" parent="1" source="1EiyAuGydXLx-KwnoGxu-36" target="z_p3hWrLcOgbsuCtcpRh-2">
          <mxGeometry relative="1" as="geometry" />
        </mxCell>
        <mxCell id="1EiyAuGydXLx-KwnoGxu-36" value="RabbitMQ&lt;br&gt;report_queue" style="outlineConnect=0;dashed=0;verticalLabelPosition=bottom;verticalAlign=top;align=center;html=1;shape=mxgraph.aws3.queue;fillColor=#D9A741;gradientColor=none;" parent="1" vertex="1">
          <mxGeometry x="270" y="1350" width="73.5" height="48" as="geometry" />
        </mxCell>
        <mxCell id="1EiyAuGydXLx-KwnoGxu-37" value="" style="edgeStyle=orthogonalEdgeStyle;rounded=0;orthogonalLoop=1;jettySize=auto;html=1;entryX=0.5;entryY=0;entryDx=0;entryDy=0;entryPerimeter=0;exitX=0;exitY=0.5;exitDx=0;exitDy=0;" parent="1" source="1EiyAuGydXLx-KwnoGxu-25" target="1EiyAuGydXLx-KwnoGxu-36" edge="1">
          <mxGeometry x="-0.6145" y="10" relative="1" as="geometry">
            <mxPoint x="500" y="908" as="sourcePoint" />
            <Array as="points">
              <mxPoint x="307" y="1070" />
            </Array>
            <mxPoint x="1" as="offset" />
            <mxPoint x="306.75" y="1220" as="targetPoint" />
          </mxGeometry>
        </mxCell>
        <mxCell id="1EiyAuGydXLx-KwnoGxu-40" value="MongoDB" style="sketch=0;points=[[0,0,0],[0.25,0,0],[0.5,0,0],[0.75,0,0],[1,0,0],[0,1,0],[0.25,1,0],[0.5,1,0],[0.75,1,0],[1,1,0],[0,0.25,0],[0,0.5,0],[0,0.75,0],[1,0.25,0],[1,0.5,0],[1,0.75,0]];outlineConnect=0;fontColor=#232F3E;fillColor=#C925D1;strokeColor=#ffffff;dashed=0;verticalLabelPosition=bottom;verticalAlign=top;align=center;html=1;fontSize=12;fontStyle=0;aspect=fixed;shape=mxgraph.aws4.resourceIcon;resIcon=mxgraph.aws4.documentdb_with_mongodb_compatibility;" parent="1" vertex="1">
          <mxGeometry x="735" y="1485" width="78" height="78" as="geometry" />
        </mxCell>
        <mxCell id="1EiyAuGydXLx-KwnoGxu-54" style="edgeStyle=orthogonalEdgeStyle;rounded=0;orthogonalLoop=1;jettySize=auto;html=1;entryX=0;entryY=0.5;entryDx=0;entryDy=0;entryPerimeter=0;" parent="1" source="1EiyAuGydXLx-KwnoGxu-53" target="1EiyAuGydXLx-KwnoGxu-36" edge="1">
          <mxGeometry relative="1" as="geometry">
            <Array as="points">
              <mxPoint x="220" y="1270" />
              <mxPoint x="220" y="1374" />
            </Array>
          </mxGeometry>
        </mxCell>
        <mxCell id="1EiyAuGydXLx-KwnoGxu-55" style="edgeStyle=orthogonalEdgeStyle;rounded=0;orthogonalLoop=1;jettySize=auto;html=1;entryX=0;entryY=0.5;entryDx=0;entryDy=0;entryPerimeter=0;exitX=1;exitY=0.5;exitDx=0;exitDy=0;" parent="1" source="1EiyAuGydXLx-KwnoGxu-52" target="1EiyAuGydXLx-KwnoGxu-36" edge="1">
          <mxGeometry relative="1" as="geometry">
            <mxPoint x="280" y="838" as="targetPoint" />
            <mxPoint x="155" y="1148" as="sourcePoint" />
            <Array as="points">
              <mxPoint x="220" y="1180" />
              <mxPoint x="220" y="1374" />
            </Array>
          </mxGeometry>
        </mxCell>
        <mxCell id="1EiyAuGydXLx-KwnoGxu-60" style="edgeStyle=orthogonalEdgeStyle;rounded=0;orthogonalLoop=1;jettySize=auto;html=1;entryX=0.5;entryY=1;entryDx=0;entryDy=0;entryPerimeter=0;startArrow=classic;startFill=1;" parent="1" source="1EiyAuGydXLx-KwnoGxu-56" target="1EiyAuGydXLx-KwnoGxu-40" edge="1">
          <mxGeometry relative="1" as="geometry">
            <Array as="points">
              <mxPoint x="774" y="1650" />
            </Array>
          </mxGeometry>
        </mxCell>
        <mxCell id="1EiyAuGydXLx-KwnoGxu-61" style="edgeStyle=orthogonalEdgeStyle;rounded=0;orthogonalLoop=1;jettySize=auto;html=1;entryX=0.5;entryY=1;entryDx=0;entryDy=0;entryPerimeter=0;startArrow=classic;startFill=1;exitX=1;exitY=0.5;exitDx=0;exitDy=0;" parent="1" source="1EiyAuGydXLx-KwnoGxu-58" target="1EiyAuGydXLx-KwnoGxu-40" edge="1">
          <mxGeometry relative="1" as="geometry">
            <Array as="points">
              <mxPoint x="774" y="1740" />
            </Array>
          </mxGeometry>
        </mxCell>
        <mxCell id="1EiyAuGydXLx-KwnoGxu-64" style="edgeStyle=orthogonalEdgeStyle;rounded=0;orthogonalLoop=1;jettySize=auto;html=1;startArrow=classic;startFill=1;" parent="1" source="1EiyAuGydXLx-KwnoGxu-62" target="1EiyAuGydXLx-KwnoGxu-27" edge="1">
          <mxGeometry relative="1" as="geometry">
            <Array as="points">
              <mxPoint x="710" y="870" />
              <mxPoint x="710" y="796" />
            </Array>
          </mxGeometry>
        </mxCell>
        <mxCell id="1EiyAuGydXLx-KwnoGxu-71" value="Transaction&lt;span style=&quot;background-color: initial;&quot;&gt;&amp;nbsp;microservice&lt;/span&gt;" style="swimlane;whiteSpace=wrap;html=1;" parent="1" vertex="1">
          <mxGeometry x="420" y="210" width="270" height="280" as="geometry" />
        </mxCell>
        <mxCell id="1EiyAuGydXLx-KwnoGxu-76" value="" style="group" parent="1EiyAuGydXLx-KwnoGxu-71" vertex="1" connectable="0">
          <mxGeometry x="70" y="120" width="160" height="140" as="geometry" />
        </mxCell>
        <mxCell id="QUk8FtStDp65RCyqHyz4-12" value="Outbox module" style="swimlane;whiteSpace=wrap;html=1;" parent="1EiyAuGydXLx-KwnoGxu-76" vertex="1">
          <mxGeometry x="-40" y="30" width="200" height="110" as="geometry" />
        </mxCell>
        <mxCell id="QUk8FtStDp65RCyqHyz4-14" value="" style="group" parent="QUk8FtStDp65RCyqHyz4-12" vertex="1" connectable="0">
          <mxGeometry x="40" y="28" width="120" height="60" as="geometry" />
        </mxCell>
        <mxCell id="1EiyAuGydXLx-KwnoGxu-77" value="outbox service" style="rounded=0;whiteSpace=wrap;html=1;" parent="QUk8FtStDp65RCyqHyz4-14" vertex="1">
          <mxGeometry width="120" height="60" as="geometry" />
        </mxCell>
        <mxCell id="1EiyAuGydXLx-KwnoGxu-78" value="" style="aspect=fixed;sketch=0;html=1;dashed=0;whitespace=wrap;verticalLabelPosition=bottom;verticalAlign=top;fillColor=#2875E2;strokeColor=#ffffff;points=[[0.005,0.63,0],[0.1,0.2,0],[0.9,0.2,0],[0.5,0,0],[0.995,0.63,0],[0.72,0.99,0],[0.5,1,0],[0.28,0.99,0]];shape=mxgraph.kubernetes.icon2;kubernetesLabel=1;prIcon=cronjob" parent="QUk8FtStDp65RCyqHyz4-14" vertex="1">
          <mxGeometry x="90.83000000000001" width="29.17" height="28" as="geometry" />
        </mxCell>
        <mxCell id="QUk8FtStDp65RCyqHyz4-9" value="Transaction module" style="swimlane;whiteSpace=wrap;html=1;" parent="1EiyAuGydXLx-KwnoGxu-71" vertex="1">
          <mxGeometry x="30" y="30" width="200" height="110" as="geometry" />
        </mxCell>
        <mxCell id="1EiyAuGydXLx-KwnoGxu-72" value="transaction.transfer" style="rounded=0;whiteSpace=wrap;html=1;" parent="QUk8FtStDp65RCyqHyz4-9" vertex="1">
          <mxGeometry x="40" y="26" width="120" height="60" as="geometry" />
        </mxCell>
        <mxCell id="1EiyAuGydXLx-KwnoGxu-79" style="edgeStyle=orthogonalEdgeStyle;rounded=0;orthogonalLoop=1;jettySize=auto;html=1;entryX=1;entryY=0.5;entryDx=0;entryDy=0;exitX=0;exitY=0.5;exitDx=0;exitDy=0;exitPerimeter=0;" parent="1" source="1EiyAuGydXLx-KwnoGxu-75" target="1EiyAuGydXLx-KwnoGxu-77" edge="1">
          <mxGeometry relative="1" as="geometry">
            <Array as="points">
              <mxPoint x="700" y="310" />
              <mxPoint x="700" y="418" />
            </Array>
          </mxGeometry>
        </mxCell>
        <mxCell id="1EiyAuGydXLx-KwnoGxu-75" value="MongoDB" style="sketch=0;points=[[0,0,0],[0.25,0,0],[0.5,0,0],[0.75,0,0],[1,0,0],[0,1,0],[0.25,1,0],[0.5,1,0],[0.75,1,0],[1,1,0],[0,0.25,0],[0,0.5,0],[0,0.75,0],[1,0.25,0],[1,0.5,0],[1,0.75,0]];outlineConnect=0;fontColor=#232F3E;fillColor=#C925D1;strokeColor=#ffffff;dashed=0;verticalLabelPosition=bottom;verticalAlign=top;align=center;html=1;fontSize=12;fontStyle=0;aspect=fixed;shape=mxgraph.aws4.resourceIcon;resIcon=mxgraph.aws4.documentdb_with_mongodb_compatibility;" parent="1" vertex="1">
          <mxGeometry x="735" y="271" width="78" height="78" as="geometry" />
        </mxCell>
        <mxCell id="1EiyAuGydXLx-KwnoGxu-80" style="edgeStyle=orthogonalEdgeStyle;rounded=0;orthogonalLoop=1;jettySize=auto;html=1;entryX=0.5;entryY=0;entryDx=0;entryDy=0;entryPerimeter=0;exitX=0;exitY=0.5;exitDx=0;exitDy=0;" parent="1" source="1EiyAuGydXLx-KwnoGxu-77" target="1EiyAuGydXLx-KwnoGxu-28" edge="1">
          <mxGeometry relative="1" as="geometry">
            <Array as="points">
              <mxPoint x="337" y="418" />
            </Array>
          </mxGeometry>
        </mxCell>
        <mxCell id="1EiyAuGydXLx-KwnoGxu-81" style="edgeStyle=orthogonalEdgeStyle;rounded=0;orthogonalLoop=1;jettySize=auto;html=1;entryX=0;entryY=0.5;entryDx=0;entryDy=0;entryPerimeter=0;startArrow=classic;startFill=1;" parent="1" source="1EiyAuGydXLx-KwnoGxu-69" target="1EiyAuGydXLx-KwnoGxu-28" edge="1">
          <mxGeometry relative="1" as="geometry" />
        </mxCell>
        <mxCell id="1EiyAuGydXLx-KwnoGxu-82" style="edgeStyle=orthogonalEdgeStyle;rounded=0;orthogonalLoop=1;jettySize=auto;html=1;entryX=0;entryY=0.5;entryDx=0;entryDy=0;entryPerimeter=0;startArrow=classic;startFill=1;" parent="1" source="1EiyAuGydXLx-KwnoGxu-70" target="1EiyAuGydXLx-KwnoGxu-28" edge="1">
          <mxGeometry relative="1" as="geometry">
            <mxPoint x="240" y="860" as="targetPoint" />
          </mxGeometry>
        </mxCell>
        <mxCell id="1EiyAuGydXLx-KwnoGxu-85" style="edgeStyle=orthogonalEdgeStyle;rounded=0;orthogonalLoop=1;jettySize=auto;html=1;entryX=0;entryY=0.5;entryDx=0;entryDy=0;startArrow=classic;startFill=1;" parent="1" source="1EiyAuGydXLx-KwnoGxu-83" target="1EiyAuGydXLx-KwnoGxu-72" edge="1">
          <mxGeometry relative="1" as="geometry" />
        </mxCell>
        <mxCell id="1EiyAuGydXLx-KwnoGxu-83" value="RabbitMQ&lt;br&gt;transaction_queue" style="outlineConnect=0;dashed=0;verticalLabelPosition=bottom;verticalAlign=top;align=center;html=1;shape=mxgraph.aws3.queue;fillColor=#D9A741;gradientColor=none;" parent="1" vertex="1">
          <mxGeometry x="270" y="266" width="73.5" height="48" as="geometry" />
        </mxCell>
        <mxCell id="1EiyAuGydXLx-KwnoGxu-84" style="edgeStyle=orthogonalEdgeStyle;rounded=0;orthogonalLoop=1;jettySize=auto;html=1;entryX=0;entryY=0.5;entryDx=0;entryDy=0;entryPerimeter=0;startArrow=classic;startFill=1;" parent="1" source="1EiyAuGydXLx-KwnoGxu-68" target="1EiyAuGydXLx-KwnoGxu-83" edge="1">
          <mxGeometry relative="1" as="geometry">
            <Array as="points">
              <mxPoint x="250" y="290" />
              <mxPoint x="250" y="290" />
            </Array>
          </mxGeometry>
        </mxCell>
        <mxCell id="1EiyAuGydXLx-KwnoGxu-86" style="edgeStyle=orthogonalEdgeStyle;rounded=0;orthogonalLoop=1;jettySize=auto;html=1;entryX=0;entryY=0.5;entryDx=0;entryDy=0;entryPerimeter=0;startArrow=classic;startFill=1;" parent="1" source="1EiyAuGydXLx-KwnoGxu-72" target="1EiyAuGydXLx-KwnoGxu-75" edge="1">
          <mxGeometry relative="1" as="geometry">
            <Array as="points">
              <mxPoint x="700" y="280" />
              <mxPoint x="700" y="310" />
            </Array>
          </mxGeometry>
        </mxCell>
        <mxCell id="1EiyAuGydXLx-KwnoGxu-98" style="edgeStyle=orthogonalEdgeStyle;rounded=0;orthogonalLoop=1;jettySize=auto;html=1;" parent="1" source="1EiyAuGydXLx-KwnoGxu-94" target="1EiyAuGydXLx-KwnoGxu-27" edge="1">
          <mxGeometry relative="1" as="geometry">
            <Array as="points">
              <mxPoint x="710" y="640" />
              <mxPoint x="710" y="796" />
            </Array>
          </mxGeometry>
        </mxCell>
        <mxCell id="1EiyAuGydXLx-KwnoGxu-99" style="edgeStyle=orthogonalEdgeStyle;rounded=0;orthogonalLoop=1;jettySize=auto;html=1;" parent="1" source="1EiyAuGydXLx-KwnoGxu-93" target="1EiyAuGydXLx-KwnoGxu-27" edge="1">
          <mxGeometry relative="1" as="geometry">
            <Array as="points">
              <mxPoint x="710" y="710" />
              <mxPoint x="710" y="796" />
            </Array>
          </mxGeometry>
        </mxCell>
        <mxCell id="1EiyAuGydXLx-KwnoGxu-100" style="edgeStyle=orthogonalEdgeStyle;rounded=0;orthogonalLoop=1;jettySize=auto;html=1;" parent="1" source="1EiyAuGydXLx-KwnoGxu-92" target="1EiyAuGydXLx-KwnoGxu-27" edge="1">
          <mxGeometry relative="1" as="geometry" />
        </mxCell>
        <mxCell id="QUk8FtStDp65RCyqHyz4-2" style="edgeStyle=orthogonalEdgeStyle;rounded=0;orthogonalLoop=1;jettySize=auto;html=1;entryX=0;entryY=0.5;entryDx=0;entryDy=0;entryPerimeter=0;startArrow=classic;startFill=1;" parent="1" source="QUk8FtStDp65RCyqHyz4-1" target="1EiyAuGydXLx-KwnoGxu-28" edge="1">
          <mxGeometry relative="1" as="geometry" />
        </mxCell>
        <mxCell id="QUk8FtStDp65RCyqHyz4-18" value="Transaction module" style="swimlane;whiteSpace=wrap;html=1;" parent="1" vertex="1">
          <mxGeometry x="455" y="1000" width="200" height="110" as="geometry" />
        </mxCell>
        <mxCell id="1EiyAuGydXLx-KwnoGxu-66" value="" style="group" parent="QUk8FtStDp65RCyqHyz4-18" vertex="1" connectable="0">
          <mxGeometry x="40" y="40" width="120" height="60" as="geometry" />
        </mxCell>
        <mxCell id="1EiyAuGydXLx-KwnoGxu-25" value="outbox service" style="rounded=0;whiteSpace=wrap;html=1;" parent="1EiyAuGydXLx-KwnoGxu-66" vertex="1">
          <mxGeometry width="120" height="60" as="geometry" />
        </mxCell>
        <mxCell id="1EiyAuGydXLx-KwnoGxu-65" value="" style="aspect=fixed;sketch=0;html=1;dashed=0;whitespace=wrap;verticalLabelPosition=bottom;verticalAlign=top;fillColor=#2875E2;strokeColor=#ffffff;points=[[0.005,0.63,0],[0.1,0.2,0],[0.9,0.2,0],[0.5,0,0],[0.995,0.63,0],[0.72,0.99,0],[0.5,1,0],[0.28,0.99,0]];shape=mxgraph.kubernetes.icon2;kubernetesLabel=1;prIcon=cronjob" parent="1EiyAuGydXLx-KwnoGxu-66" vertex="1">
          <mxGeometry x="90.83000000000001" width="29.17" height="28" as="geometry" />
        </mxCell>
        <mxCell id="QUk8FtStDp65RCyqHyz4-21" style="edgeStyle=orthogonalEdgeStyle;rounded=0;orthogonalLoop=1;jettySize=auto;html=1;" parent="1" source="QUk8FtStDp65RCyqHyz4-3" target="1EiyAuGydXLx-KwnoGxu-27" edge="1">
          <mxGeometry relative="1" as="geometry">
            <Array as="points">
              <mxPoint x="710" y="946" />
              <mxPoint x="710" y="796" />
            </Array>
          </mxGeometry>
        </mxCell>
        <mxCell id="1EiyAuGydXLx-KwnoGxu-47" style="edgeStyle=orthogonalEdgeStyle;rounded=0;orthogonalLoop=1;jettySize=auto;html=1;entryX=0;entryY=0.5;entryDx=0;entryDy=0;exitX=1;exitY=0.5;exitDx=0;exitDy=0;exitPerimeter=0;" parent="1" source="1EiyAuGydXLx-KwnoGxu-36" target="1EiyAuGydXLx-KwnoGxu-44" edge="1">
          <mxGeometry relative="1" as="geometry">
            <Array as="points">
              <mxPoint x="420" y="1374" />
              <mxPoint x="420" y="1532" />
            </Array>
            <mxPoint x="343.5" y="1342" as="sourcePoint" />
          </mxGeometry>
        </mxCell>
        <mxCell id="1EiyAuGydXLx-KwnoGxu-46" style="edgeStyle=orthogonalEdgeStyle;rounded=0;orthogonalLoop=1;jettySize=auto;html=1;entryX=0;entryY=0.5;entryDx=0;entryDy=0;exitX=1;exitY=0.5;exitDx=0;exitDy=0;exitPerimeter=0;" parent="1" source="1EiyAuGydXLx-KwnoGxu-36" target="1EiyAuGydXLx-KwnoGxu-43" edge="1">
          <mxGeometry relative="1" as="geometry">
            <Array as="points">
              <mxPoint x="420" y="1374" />
              <mxPoint x="420" y="1462" />
            </Array>
            <mxPoint x="343.5" y="1342" as="sourcePoint" />
          </mxGeometry>
        </mxCell>
        <mxCell id="1EiyAuGydXLx-KwnoGxu-45" style="edgeStyle=orthogonalEdgeStyle;rounded=0;orthogonalLoop=1;jettySize=auto;html=1;entryX=0;entryY=0.5;entryDx=0;entryDy=0;exitX=1;exitY=0.5;exitDx=0;exitDy=0;exitPerimeter=0;" parent="1" source="1EiyAuGydXLx-KwnoGxu-36" target="1EiyAuGydXLx-KwnoGxu-42" edge="1">
          <mxGeometry relative="1" as="geometry">
            <Array as="points">
              <mxPoint x="420" y="1374" />
              <mxPoint x="420" y="1392" />
            </Array>
            <mxPoint x="343.5" y="1342" as="sourcePoint" />
          </mxGeometry>
        </mxCell>
        <mxCell id="1EiyAuGydXLx-KwnoGxu-39" style="edgeStyle=orthogonalEdgeStyle;rounded=0;orthogonalLoop=1;jettySize=auto;html=1;entryX=0;entryY=0.5;entryDx=0;entryDy=0;exitX=1;exitY=0.5;exitDx=0;exitDy=0;exitPerimeter=0;" parent="1" source="1EiyAuGydXLx-KwnoGxu-36" target="1EiyAuGydXLx-KwnoGxu-38" edge="1">
          <mxGeometry relative="1" as="geometry">
            <Array as="points">
              <mxPoint x="420" y="1374" />
              <mxPoint x="420" y="1320" />
            </Array>
            <mxPoint x="343.5" y="1342" as="sourcePoint" />
          </mxGeometry>
        </mxCell>
        <mxCell id="z_p3hWrLcOgbsuCtcpRh-1" style="edgeStyle=orthogonalEdgeStyle;rounded=0;orthogonalLoop=1;jettySize=auto;html=1;entryX=0.5;entryY=0;entryDx=0;entryDy=0;exitX=0.25;exitY=1;exitDx=0;exitDy=0;entryPerimeter=0;" edge="1" parent="1" source="1EiyAuGydXLx-KwnoGxu-72" target="1EiyAuGydXLx-KwnoGxu-36">
          <mxGeometry relative="1" as="geometry">
            <Array as="points">
              <mxPoint x="520" y="340" />
              <mxPoint x="400" y="340" />
              <mxPoint x="400" y="1070" />
              <mxPoint x="307" y="1070" />
            </Array>
          </mxGeometry>
        </mxCell>
        <mxCell id="1EiyAuGydXLx-KwnoGxu-41" style="edgeStyle=orthogonalEdgeStyle;rounded=0;orthogonalLoop=1;jettySize=auto;html=1;entryX=0;entryY=0.5;entryDx=0;entryDy=0;entryPerimeter=0;" parent="1" source="1EiyAuGydXLx-KwnoGxu-38" edge="1" target="1EiyAuGydXLx-KwnoGxu-40">
          <mxGeometry relative="1" as="geometry">
            <Array as="points">
              <mxPoint x="670" y="1321" />
              <mxPoint x="670" y="1524" />
            </Array>
            <mxPoint x="735" y="1436" as="targetPoint" />
          </mxGeometry>
        </mxCell>
        <mxCell id="1EiyAuGydXLx-KwnoGxu-48" style="edgeStyle=orthogonalEdgeStyle;rounded=0;orthogonalLoop=1;jettySize=auto;html=1;entryX=0;entryY=0.5;entryDx=0;entryDy=0;entryPerimeter=0;" parent="1" source="1EiyAuGydXLx-KwnoGxu-42" edge="1" target="1EiyAuGydXLx-KwnoGxu-40">
          <mxGeometry relative="1" as="geometry">
            <Array as="points">
              <mxPoint x="670" y="1393" />
              <mxPoint x="670" y="1524" />
            </Array>
            <mxPoint x="735" y="1436" as="targetPoint" />
          </mxGeometry>
        </mxCell>
        <mxCell id="1EiyAuGydXLx-KwnoGxu-49" style="edgeStyle=orthogonalEdgeStyle;rounded=0;orthogonalLoop=1;jettySize=auto;html=1;entryX=0;entryY=0.5;entryDx=0;entryDy=0;entryPerimeter=0;" parent="1" source="1EiyAuGydXLx-KwnoGxu-43" edge="1" target="1EiyAuGydXLx-KwnoGxu-40">
          <mxGeometry relative="1" as="geometry">
            <mxPoint x="735" y="1436" as="targetPoint" />
            <Array as="points">
              <mxPoint x="670" y="1460" />
              <mxPoint x="670" y="1524" />
            </Array>
          </mxGeometry>
        </mxCell>
        <mxCell id="1EiyAuGydXLx-KwnoGxu-50" style="edgeStyle=orthogonalEdgeStyle;rounded=0;orthogonalLoop=1;jettySize=auto;html=1;entryX=0;entryY=0.5;entryDx=0;entryDy=0;entryPerimeter=0;" parent="1" source="1EiyAuGydXLx-KwnoGxu-44" edge="1" target="1EiyAuGydXLx-KwnoGxu-40">
          <mxGeometry relative="1" as="geometry">
            <Array as="points">
              <mxPoint x="610" y="1524" />
              <mxPoint x="610" y="1524" />
            </Array>
            <mxPoint x="735" y="1436" as="targetPoint" />
          </mxGeometry>
        </mxCell>
      </root>
    </mxGraphModel>
  </diagram>
</mxfile>
